<?xml version="1.0" encoding="utf-8"?>
<!-- Generator: Adobe Illustrator 25.2.3, SVG Export Plug-In . SVG Version: 6.00 Build 0)  -->
<svg version="1.1" id="Layer_1" xmlns="http://www.w3.org/2000/svg" xmlns:xlink="http://www.w3.org/1999/xlink" x="0px" y="0px"
	 viewBox="0 0 1920 1080" style="enable-background:new 0 0 1920 1080;" xml:space="preserve">
<style type="text/css">
	.st0{fill:#55A630;}
	.st1{fill:#2B9348;}
	.st2{fill:#F4A261;}
	.st3{fill:#AF7045;}
	.st4{fill:#FFFFFF;}
	.st5{fill:#E76F51;}
	.st6{fill:#EA6147;}
</style>
<ellipse transform="matrix(0.9364 -0.3509 0.3509 0.9364 -94.772 333.289)" class="st0" cx="872.1" cy="428.1" rx="98.9" ry="284.61"/>
<path class="st1" d="M964.71,393.4c40.73,108.67,40.61,218.86,7.27,301.21L772.22,161.6C851.47,201.76,923.99,284.73,964.71,393.4z"
	/>
<ellipse transform="matrix(0.3535 -0.9354 0.9354 0.3535 336.919 1353.8738)" class="st0" cx="1147.9" cy="433.2" rx="284.61" ry="98.9"/>
<path class="st1" d="M1240.41,468.16c-41.02,108.56-113.76,191.33-193.12,231.28l201.2-532.47
	C1281.61,249.4,1281.43,359.6,1240.41,468.16z"/>
<ellipse class="st0" cx="1012.27" cy="294.92" rx="121.91" ry="284.61"/>
<path class="st1" d="M1134.19,294.92c0,116.05-47.81,219.19-121.91,284.61V10.32C1086.37,75.73,1134.19,178.87,1134.19,294.92z"/>
<g>
	<path class="st2" d="M1274.82,577.91l-0.1,1.61l-2.31,36.24l-27.51,431.88c-0.26,4.25-1.65,8.2-3.89,11.57
		c-3.59,5.47-9.42,9.36-16.15,10.41c-1.22,0.2-2.47,0.3-3.72,0.3H817.7c-12.55,0-22.97-9.75-23.76-22.27l-4.02-63.23l-23.49-368.64
		l-2.31-36.24l-0.1-1.61c-0.89-13.71,10.02-25.31,23.76-25.31h463.28c3.1,0,6.03,0.59,8.73,1.68
		C1269.12,557.94,1275.51,567.3,1274.82,577.91z"/>
</g>
<g>
	<path class="st2" d="M1322,497.15v65.9c0,9.09-7.38,16.47-16.47,16.47H725.61c-9.09,0-16.47-7.38-16.47-16.47v-65.9
		c0-9.09,7.38-16.48,16.47-16.48h579.92C1314.62,480.68,1322,488.06,1322,497.15z"/>
</g>
<polygon class="st3" points="1274.72,579.53 1272.41,615.77 766.43,615.77 764.12,579.53 "/>
<ellipse class="st4" cx="909.94" cy="760.75" rx="98.67" ry="105.44"/>
<ellipse class="st4" cx="1134.37" cy="760.75" rx="98.67" ry="105.44"/>
<path d="M1008.98,790.41c0,38.22-30.97,69.19-69.19,69.19c-38.22,0-69.19-30.97-69.19-69.19c0-15.98,5.4-30.68,14.5-42.37
	c2.8,7.41,10.02,12.72,18.45,12.72c10.91,0,19.77-8.86,19.77-19.77c0-6.29-2.93-11.89-7.51-15.52c7.48-2.73,15.55-4.25,23.99-4.25
	C978,721.21,1008.98,752.18,1008.98,790.41z"/>
<path d="M1046.21,790.47c0,38.22,30.97,69.19,69.19,69.19s69.19-30.97,69.19-69.19c0-15.98-5.4-30.68-14.5-42.37
	c-2.8,7.41-10.02,12.72-18.45,12.72c-10.91,0-19.77-8.86-19.77-19.77c0-6.29,2.93-11.89,7.51-15.52
	c-7.48-2.73-15.55-4.25-23.99-4.25C1077.19,721.27,1046.21,752.25,1046.21,790.47z"/>
<circle class="st4" cx="962.85" cy="839.83" r="13.18"/>
<circle class="st4" cx="1094.65" cy="843.13" r="13.18"/>
<path d="M1157.25,917.26c0,25.01-6.89,48.44-18.85,68.44c-0.1,0.2-0.23,0.36-0.33,0.56c-0.03,0.07-0.07,0.13-0.13,0.2
	c-23.39,38.55-65.77,64.25-114.14,64.25h-0.43c-7.15-0.03-14.14-0.59-20.96-1.71c-4.71-0.76-9.36-1.78-13.9-3.03
	c-1.38-0.36-2.77-0.76-4.12-1.19c-11.1-3.43-21.62-8.27-31.27-14.33c-37.69-23.56-62.77-65.44-62.77-113.18
	c0-3.89,0.16-7.71,0.49-11.53h265.91C1157.09,909.55,1157.25,913.38,1157.25,917.26z"/>
<path class="st5" d="M1138.4,985.7c-0.1,0.2-0.23,0.36-0.33,0.56c-0.03,0.07-0.07,0.13-0.13,0.2
	c-23.39,38.55-65.77,64.25-114.14,64.25h-0.43c-7.15-0.03-14.14-0.59-20.96-1.71c-4.71-0.76-9.36-1.78-13.9-3.03
	c-1.38-0.36-2.77-0.76-4.12-1.19c-3.29-5.9-5.07-12.22-5.07-18.78c0-6.26,1.61-12.29,4.61-17.92
	c12.09-23.06,46.99-39.74,88.14-39.74C1098.07,968.34,1121.57,974.99,1138.4,985.7z"/>
<path class="st6" d="M1137.94,986.46c-23.39,38.55-65.77,64.25-114.14,64.25h-0.43c-7.15-0.03-14.14-0.59-20.96-1.71
	c0.99-42.87,38.95-77.37,85.64-77.37C1106.67,971.63,1123.9,977.13,1137.94,986.46z"/>
<path class="st4" d="M991.71,1018.35l-1.81,23.36c-0.13,1.55-0.59,3-1.38,4.25c-1.38-0.36-2.77-0.76-4.12-1.19
	c-11.1-3.43-21.62-8.27-31.27-14.33l-1.75-11.37c-0.89-5.9,3.66-11.2,9.62-11.2h20.99c0.66,0,1.32,0.07,1.94,0.2
	C988.65,1009.03,992.07,1013.35,991.71,1018.35z"/>
<path class="st4" d="M1088.75,925.73l-20.79,2.87c-0.66,0.1-1.32,0.1-1.94,0.07c-4.81-0.3-8.8-4.12-9.09-9.13l-0.82-13.81h38.42
	l2.24,7.61C1098.43,919.04,1094.68,924.94,1088.75,925.73z"/>
</svg>
